<?xml version="1.0" standalone="no"?>
<!DOCTYPE svg PUBLIC "-//W3C//DTD SVG 20010904//EN"
 "http://www.w3.org/TR/2001/REC-SVG-20010904/DTD/svg10.dtd">
<svg version="1.0" xmlns="http://www.w3.org/2000/svg"
 width="100.000000pt" height="100.000000pt" viewBox="0 0 100.000000 100.000000"
 preserveAspectRatio="xMidYMid meet">
<metadata>
Created by potrace 1.16, written by Peter Selinger 2001-2019
</metadata>
<g transform="translate(0.000000,100.000000) scale(0.100000,-0.100000)"
fill="#000000" stroke="none">
<path d="M370 823 c-14 -10 -45 -25 -70 -33 -31 -10 -52 -26 -67 -50 -13 -19
-39 -51 -57 -71 -26 -27 -36 -48 -41 -85 -3 -27 -9 -71 -14 -97 -10 -59 0
-111 28 -141 12 -12 21 -30 21 -40 0 -46 69 -116 115 -116 9 0 28 -9 42 -20
33 -26 112 -27 142 -2 21 17 21 21 19 342 l-3 325 -45 3 c-31 2 -53 -3 -70
-15z m70 -322 c0 -183 -4 -292 -10 -296 -5 -3 -10 3 -10 14 0 23 -4 24 -35 12
-20 -8 -45 8 -45 28 0 16 -20 13 -26 -4 -9 -22 -28 -18 -63 11 -31 26 -41 66
-21 79 13 8 13 35 -1 35 -14 0 -39 25 -39 39 0 6 -6 11 -14 11 -12 0 -13 6 -4
33 6 17 11 49 10 70 -2 50 21 103 47 112 13 4 28 23 37 45 17 43 43 59 56 35
12 -20 28 -19 28 3 1 16 1 16 11 -1 14 -24 32 -10 25 19 -4 16 -1 26 11 33 43
25 43 25 43 -278z"/>
<path d="M310 545 c0 -9 -8 -14 -22 -12 -18 1 -23 -3 -21 -19 2 -15 -4 -24
-18 -27 -23 -6 -17 -27 8 -27 11 0 14 -6 9 -24 -7 -29 9 -43 29 -26 12 10 15
9 15 -4 0 -9 7 -16 15 -16 8 0 15 7 15 16 0 12 6 15 24 10 25 -6 44 8 26 19
-15 9 -12 25 5 25 8 0 15 7 15 15 0 8 -7 15 -16 15 -12 0 -15 6 -10 24 7 29
-9 43 -29 26 -12 -10 -15 -9 -15 4 0 9 -7 16 -15 16 -8 0 -15 -7 -15 -15z"/>
<path d="M507 833 c-4 -3 -7 -149 -7 -324 0 -314 0 -318 22 -339 30 -28 115
-28 146 0 12 11 28 20 37 20 42 0 115 63 115 99 0 9 12 34 27 56 31 44 33 78
16 201 -12 81 -20 99 -62 137 -17 15 -31 33 -31 41 0 17 -56 66 -74 66 -7 0
-34 11 -60 25 -44 23 -114 33 -129 18z m96 -63 c14 -11 37 -20 51 -20 18 0 24
-4 20 -15 -4 -9 0 -15 10 -15 10 0 15 -8 13 -22 -1 -17 3 -23 17 -23 11 0 21
-6 24 -13 2 -6 10 -12 18 -12 23 0 54 -61 54 -107 0 -23 5 -54 10 -69 14 -37
4 -82 -18 -80 -11 1 -16 -5 -14 -16 2 -12 -4 -18 -17 -18 -23 0 -36 -16 -21
-25 6 -4 7 -12 3 -18 -4 -7 -6 -21 -5 -33 3 -22 -32 -44 -70 -44 -11 0 -27 -8
-34 -17 -9 -13 -13 -14 -14 -4 0 7 -6 11 -15 7 -8 -3 -21 2 -30 10 -8 8 -19
12 -25 9 -7 -4 -10 49 -10 154 0 136 2 161 15 161 8 0 15 6 15 14 0 8 -7 16
-15 20 -8 3 -15 12 -15 21 0 8 7 15 15 15 8 0 15 7 15 15 0 8 -7 15 -15 15
-12 0 -15 14 -15 65 0 72 9 80 53 45z"/>
<path d="M635 589 c-4 -6 -4 -13 -1 -16 13 -13 -17 -33 -40 -27 -17 4 -24 2
-24 -9 0 -8 7 -17 15 -21 17 -6 15 -48 -3 -54 -22 -7 -14 -35 8 -29 24 6 36
-9 31 -40 -3 -26 16 -31 25 -8 7 17 49 20 59 5 11 -17 38 -12 31 6 -9 24 10
42 39 36 30 -5 33 13 5 28 -23 13 -27 48 -5 56 21 8 19 36 -2 33 -35 -3 -40 1
-35 26 5 28 -21 36 -32 10 -3 -8 -12 -15 -21 -15 -9 0 -18 7 -21 15 -7 18 -20
19 -29 4z"/>
</g>
</svg>
