<?xml version="1.0" standalone="no"?>
<!DOCTYPE svg PUBLIC "-//W3C//DTD SVG 20010904//EN"
 "http://www.w3.org/TR/2001/REC-SVG-20010904/DTD/svg10.dtd">
<svg version="1.0" xmlns="http://www.w3.org/2000/svg"
 width="64.000000pt" height="64.000000pt" viewBox="0 0 64.000000 64.000000"
 preserveAspectRatio="xMidYMid meet">
<metadata>
Created by potrace 1.16, written by Peter Selinger 2001-2019
</metadata>
<g transform="translate(0.000000,64.000000) scale(0.100000,-0.100000)"
fill="#000000" stroke="none">
<path d="M303 553 c-15 -20 -70 -83 -121 -139 -51 -57 -97 -116 -101 -132 -13
-43 11 -91 49 -98 l30 -6 0 -83 c0 -95 0 -95 90 -95 88 0 90 2 90 76 0 49 -3
64 -14 64 -11 0 -16 -14 -18 -47 l-3 -48 -55 0 -55 0 -3 63 c-3 54 -1 62 15
62 36 -1 204 -29 239 -40 50 -17 89 1 111 51 14 32 21 39 42 37 20 -2 26 2 26
16 0 26 -112 66 -126 45 -6 -10 -2 -19 13 -30 19 -15 20 -20 9 -47 -17 -40
-36 -46 -72 -25 -62 37 -120 153 -127 255 -5 72 12 118 44 118 25 0 64 -31 95
-77 31 -45 46 -53 55 -29 8 20 -51 103 -89 127 -52 31 -91 25 -124 -18z"/>
<path d="M367 423 c-16 -15 -6 -91 14 -117 41 -53 109 -23 109 47 0 49 -28 77
-78 77 -21 0 -42 -3 -45 -7z"/>
</g>
</svg>
