<?xml version="1.0" standalone="no"?>
<!DOCTYPE svg PUBLIC "-//W3C//DTD SVG 20010904//EN"
 "http://www.w3.org/TR/2001/REC-SVG-20010904/DTD/svg10.dtd">
<svg version="1.0" xmlns="http://www.w3.org/2000/svg"
 width="64.000000pt" height="64.000000pt" viewBox="0 0 64.000000 64.000000"
 preserveAspectRatio="xMidYMid meet">
<metadata>
Created by potrace 1.16, written by Peter Selinger 2001-2019
</metadata>
<g transform="translate(0.000000,64.000000) scale(0.100000,-0.100000)"
fill="#000000" stroke="none">
<path d="M73 547 c-35 -35 -63 -69 -63 -76 0 -7 32 -46 72 -87 l71 -74 -55
-57 c-55 -58 -55 -59 -62 -137 -4 -43 -5 -80 -3 -83 3 -2 40 -1 83 3 78 7 79
7 137 62 l57 55 74 -71 c41 -40 80 -72 87 -72 16 0 139 123 139 139 0 7 -32
46 -72 87 -39 41 -68 77 -65 81 4 3 7 2 7 -2 0 -5 18 9 40 30 22 21 40 43 40
49 0 5 9 19 19 30 11 12 23 34 26 49 6 24 1 34 -47 82 -62 62 -83 67 -126 30
-17 -14 -34 -25 -38 -25 -19 0 -82 -73 -77 -89 4 -9 -30 19 -74 62 -45 42 -86
77 -94 77 -7 0 -41 -28 -76 -63z m67 8 c-17 -21 -4 -32 20 -17 26 16 34 -1 10
-23 -11 -10 -20 -22 -20 -27 0 -13 22 -9 42 9 22 19 36 10 18 -12 -17 -20 -4
-32 19 -18 28 17 34 3 10 -23 -26 -28 -7 -44 22 -18 10 9 21 15 24 13 2 -3
-19 -29 -48 -57 l-53 -52 -69 70 -69 70 49 50 c47 48 71 67 45 35z m255 -165
l49 -50 -124 -125 c-88 -88 -126 -121 -128 -109 -3 10 27 48 77 98 77 78 96
106 69 106 -7 0 -50 -37 -95 -82 -45 -45 -86 -79 -90 -75 -4 4 23 38 60 75 59
59 84 102 59 102 -4 0 -39 -31 -77 -70 -40 -40 -78 -70 -90 -70 -14 0 15 34
105 125 69 69 127 125 130 125 3 0 28 -23 55 -50z m60 -150 c-32 -35 -8 -55
27 -23 19 17 19 16 12 -11 -7 -28 -6 -29 22 -22 27 7 28 7 11 -12 -33 -36 -12
-59 25 -25 10 9 18 12 18 7 0 -6 -23 -32 -50 -59 l-50 -50 -67 68 -67 67 36
37 c26 27 47 38 68 39 28 1 29 0 15 -16z"/>
</g>
</svg>
