<?xml version="1.0" standalone="no"?>
<!DOCTYPE svg PUBLIC "-//W3C//DTD SVG 20010904//EN"
 "http://www.w3.org/TR/2001/REC-SVG-20010904/DTD/svg10.dtd">
<svg version="1.0" xmlns="http://www.w3.org/2000/svg"
 width="80.000000pt" height="80.000000pt" viewBox="0 0 80.000000 80.000000"
 preserveAspectRatio="xMidYMid meet">
<metadata>
Created by potrace 1.16, written by Peter Selinger 2001-2019
</metadata>
<g transform="translate(0.000000,80.000000) scale(0.100000,-0.100000)"
fill="#000000" stroke="none">
<path d="M77 663 c-4 -3 -7 -125 -7 -270 l0 -263 215 0 c137 0 215 4 215 10 0
6 -75 10 -205 10 l-205 0 0 170 0 170 310 0 310 0 0 -100 c0 -61 4 -100 10
-100 7 0 10 65 8 188 l-3 187 -321 3 c-176 1 -323 -1 -327 -5z m621 -25 c7 -7
12 -38 12 -70 l0 -58 -310 0 -310 0 0 58 c0 32 5 63 12 70 17 17 579 17 596 0z"/>
<path d="M290 580 l0 -40 195 0 195 0 0 40 0 40 -195 0 -195 0 0 -40z"/>
<path d="M594 271 c-11 -5 -33 -23 -47 -41 -36 -42 -39 -133 -6 -174 61 -78
191 -74 245 9 12 19 15 40 12 86 -4 51 -9 65 -36 91 -26 27 -40 32 -89 35 -32
1 -67 -1 -79 -6z"/>
</g>
</svg>
